{"title":"Game of Thrones S05E01-03 (720x390) [Xclusive]","uid":11811368,"size":1049932277,"categoryP":"video","categoryS":"tv_shows","magnet":"?xt=urn:btih:d3b02e936fcbe277ffbb577a4d81a22e0ac1d3d2&amp;dn=Game+of+Thrones+S05E01-03+%28720x390%29+%5BXclusive%5D&amp;tr=udp%3A%2F%2Ftracker.openbittorrent.com%3A80&amp;tr=udp%3A%2F%2Fopen.demonii.com%3A1337&amp;tr=udp%3A%2F%2Ftracker.coppersurfer.tk%3A6969&amp;tr=udp%3A%2F%2Fexodus.desync.com%3A6969","seeders":82,"leechers":5,"uploader":"frostyon420","files":3,"time":1428817223,"description":"[center]Found this online. thought i would help spread it around ;)\nI couldnt believe it when i saw em :)\nThanks go to [Xclusive]\n\n[img]http://s29.postimg.org/9r7d91p9z/game_of_thrones_season_5_start_date_spoilers_cas.jpg[/img]\n\nVideo\nID : 1\nFormat : AVC\nFormat/Info : Advanced Video Codec\nFormat profile : &lt;a class=&quot;__cf_email__&quot; href=&quot;/cdn-cgi/l/email-protection&quot; data-cfemail=&quot;b5fddcd2ddf5f9869b84&quot;&gt;[email&amp;#160;protected]&lt;/a&gt;&lt;script cf-hash='f9e31' type=&quot;text/javascript&quot;&gt;\n/* &lt;![CDATA[ */!function(){try{var t=&quot;currentScript&quot;in document?document.currentScript:function(){for(var t=document.getElementsByTagName(&quot;script&quot;),e=t.length;e--;)if(t[e].getAttribute(&quot;cf-hash&quot;))return t[e]}();if(t&amp;&amp;t.previousSibling){var e,r,n,i,c=t.previousSibling,a=c.getAttribute(&quot;data-cfemail&quot;);if(a){for(e=&quot;&quot;,r=parseInt(a.substr(0,2),16),n=2;a.length-n;n+=2)i=parseInt(a.substr(n,2),16)^r,e+=String.fromCharCode(i);e=document.createTextNode(e),c.parentNode.replaceChild(e,c)}}}catch(u){}}();/* ]]&gt; */&lt;/script&gt;\nFormat settings, CABAC : Yes\nFormat settings, ReFrames : 5 frames\nCodec ID : avc1\nCodec ID/Info : Advanced Video Coding\nBit rate : 645 Kbps\nWidth : 720 pixels\nHeight : 392 pixels\nDisplay aspect ratio : 1.85:1\nFrame rate mode : Variable\nFrame rate : 23.976 fps\nMinimum frame rate : 23.952 fps\nMaximum frame rate : 24.000 fps\nColor space : YUV\nChroma subsampling : 4:2:0\nBit depth : 8 bits\nScan type : Progressive\nBits/(Pixel*Frame) : 0.095\nStream size : 241 MiB (81%)\n\nAudio\nID : 2\nFormat : AAC\nFormat/Info : Advanced Audio Codec\nFormat profile : LC\nCodec ID : 40\nDuration_LastFrame : -21ms\nBit rate mode : Constant\nBit rate : 147 Kbps\nChannel(s) : 2 channels\nChannel positions : Front: L R\nSampling rate : 48.0 KHz\nCompression mode : Lossy\nStream size : 54.9 MiB (18%)[/center]","torrent":{"xt":"urn:btih:d3b02e936fcbe277ffbb577a4d81a22e0ac1d3d2","amp;dn":"Game+of+Thrones+S05E01-03+%28720x390%29+%5BXclusive%5D","amp;tr":["udp%3A%2F%2Ftracker.openbittorrent.com%3A80","udp%3A%2F%2Fopen.demonii.com%3A1337","udp%3A%2F%2Ftracker.coppersurfer.tk%3A6969","udp%3A%2F%2Fexodus.desync.com%3A6969"],"infoHash":"d3b02e936fcbe277ffbb577a4d81a22e0ac1d3d2","infoHashBuffer":{"type":"Buffer","data":[211,176,46,147,111,203,226,119,255,187,87,122,77,129,162,46,10,193,211,210]},"announce":[],"urlList":[]}}